<svg width="24" height="24" viewBox="0 0 24 24" fill="none" xmlns="http://www.w3.org/2000/svg">
<path fill-rule="evenodd" clip-rule="evenodd" d="M13.7485 6.99053C13.2033 5.11172 10.7964 5.11172 10.2511 6.99053C10.2058 7.14695 10.086 7.22764 9.97612 7.22764C8.14758 7.22764 7.50454 9.76469 8.88712 10.8894C8.99164 10.9744 9.04701 11.1399 9.00043 11.3004C8.73437 12.2172 9.07675 13.0785 9.6601 13.553C10.2471 14.0305 11.1152 14.1411 11.8381 13.553C11.9363 13.4731 12.0634 13.4731 12.1615 13.553C12.8845 14.1411 13.7526 14.0305 14.3395 13.553C14.9229 13.0785 15.2653 12.2172 14.9992 11.3004C14.9526 11.1399 15.008 10.9744 15.1125 10.8894C16.4951 9.76469 15.8521 7.22764 14.0235 7.22764C13.9136 7.22764 13.7939 7.14695 13.7485 6.99053ZM11.7248 7.49294C11.8165 7.17681 12.1831 7.17681 12.2748 7.49294C12.5143 8.31814 13.2116 8.90205 14.0235 8.90205C14.1026 8.90205 14.1533 8.9275 14.1911 8.96022C14.2342 8.99754 14.2751 9.05848 14.2985 9.13916C14.3458 9.30208 14.3051 9.45264 14.1852 9.55016C13.544 10.0718 13.2873 10.9817 13.5256 11.8028C13.578 11.9834 13.5187 12.1272 13.4122 12.2138C13.3578 12.2581 13.3009 12.2774 13.2536 12.279C13.2127 12.2804 13.158 12.27 13.0888 12.2138C12.4412 11.687 11.5584 11.687 10.9108 12.2138C10.8417 12.27 10.787 12.2804 10.7461 12.279C10.6987 12.2774 10.6419 12.2581 10.5874 12.2138C10.481 12.1272 10.4217 11.9834 10.4741 11.8028C10.7124 10.9817 10.4557 10.0718 9.81442 9.55016C9.69454 9.45264 9.65382 9.30208 9.7011 9.13916C9.72451 9.05848 9.76544 8.99754 9.80853 8.96022C9.8463 8.9275 9.897 8.90205 9.97612 8.90205C10.7881 8.90205 11.4853 8.31814 11.7248 7.49294Z" fill="white"/>
<path fill-rule="evenodd" clip-rule="evenodd" d="M11.8333 1.81708e-05C10.076 -0.000281571 9.00366 -0.000464416 8.11021 0.314185C6.30738 0.949099 4.89393 2.48111 4.30816 4.43518L4.29928 4.46515H3.99851C0.182233 4.46515 -1.45714 9.71396 1.57435 12.2266L1.58532 12.2357L4.12595 14.1896C4.21803 14.2604 4.31357 14.3256 4.41213 14.3849C4.41354 14.3889 4.41495 14.3929 4.41636 14.3969C4.42627 14.4249 4.4364 14.4528 4.44678 14.4808C4.7099 15.1892 5.2235 16.0392 5.71745 16.5837C6.52244 17.4711 7.35549 17.8646 8.68575 18.493L8.77415 18.5348C9.34713 18.8056 9.92651 19.0512 10.4645 19.2304C10.7192 19.3152 10.9764 19.3892 11.2275 19.4431V22.3256H7.88039C7.4538 22.3256 7.10798 22.7004 7.10798 23.1628C7.10798 23.6252 7.4538 24 7.88039 24H16.1195C16.5461 24 16.8919 23.6252 16.8919 23.1628C16.8919 22.7004 16.5461 22.3256 16.1195 22.3256H12.7723V19.4431C13.0234 19.3892 13.2806 19.3152 13.5354 19.2304C14.0733 19.0512 14.6527 18.8056 15.2257 18.5348L15.3141 18.493C16.6444 17.8646 17.4774 17.4711 18.2824 16.5837C18.7764 16.0392 19.29 15.1892 19.5531 14.4808C19.5646 14.4497 19.5758 14.4186 19.5868 14.3875C19.6875 14.3254 19.7853 14.2579 19.8798 14.1852L22.4147 12.2357L22.4256 12.2266C25.4571 9.71396 23.8178 4.46515 20.0015 4.46515H19.7006L19.6917 4.43518C19.1059 2.48111 17.6925 0.949099 15.8896 0.314185C14.9962 -0.000464416 13.9239 -0.000281571 12.1666 1.81708e-05H11.8333ZM2.50247 10.888C0.658488 9.34465 1.66386 6.13956 3.99851 6.13956H4.05237C4.01826 6.79271 4.01828 7.57603 4.01832 8.55748L4.01831 10.2318C4.01823 10.9295 4.01817 11.5313 4.0389 12.0696L2.50247 10.888ZM21.4975 10.888L19.961 12.0697C19.9817 11.5316 19.9816 10.9302 19.9815 10.2329L19.9815 8.55741C19.9816 7.57609 19.9816 6.79265 19.9475 6.13956H20.0015C22.3361 6.13956 23.3415 9.34464 21.4975 10.888ZM8.58759 1.90665C9.21758 1.68478 10.0229 1.67445 11.9999 1.67445C13.977 1.67445 14.7823 1.68478 15.4123 1.90665C16.7448 2.37593 17.7895 3.50829 18.2225 4.9526C18.266 5.09791 18.3017 5.25698 18.3303 5.44144C18.434 6.10853 18.4367 7.00819 18.4367 8.65119V10.1028C18.4367 11.9414 18.4291 12.8008 18.219 13.5512C18.1903 13.6537 18.1575 13.7544 18.12 13.8554C17.933 14.3591 17.532 15.0226 17.1808 15.4098C16.6046 16.045 16.0465 16.3203 14.6083 16.9999C14.0664 17.256 13.5447 17.4756 13.0816 17.6298C12.6072 17.7878 12.243 17.8605 11.9999 17.8605C11.7568 17.8605 11.3927 17.7878 10.9183 17.6298C10.4551 17.4756 9.93347 17.256 9.39155 16.9999C7.95336 16.3203 7.39522 16.045 6.81903 15.4098C6.46785 15.0226 6.0669 14.3591 5.87984 13.8554C5.84121 13.7515 5.80765 13.6477 5.77834 13.542C5.57067 12.7933 5.56315 11.9335 5.56315 10.1028V8.65119C5.56315 7.00819 5.56584 6.10853 5.66953 5.44144C5.6982 5.25697 5.73381 5.09791 5.77737 4.9526C6.21034 3.50829 7.25506 2.37593 8.58759 1.90665Z" fill="white"/>
</svg>
