<svg width="24" height="24" viewBox="0 0 24 24" fill="none" xmlns="http://www.w3.org/2000/svg">
<path d="M11.733 7.96244C11.822 7.67923 12.178 7.67923 12.267 7.96244C12.4996 8.70167 13.1766 9.22477 13.965 9.22477C14.0418 9.22477 14.091 9.24756 14.1277 9.27688C14.1695 9.3103 14.2093 9.3649 14.232 9.43717C14.2779 9.58312 14.2384 9.718 14.122 9.80537C13.4993 10.2727 13.2501 11.0877 13.4815 11.8233C13.5324 11.9852 13.4748 12.114 13.3714 12.1915C13.3185 12.2312 13.2633 12.2485 13.2174 12.2499C13.1777 12.2512 13.1245 12.2419 13.0574 12.1915C12.4286 11.7196 11.5714 11.7196 10.9426 12.1915C10.8755 12.2419 10.8223 12.2512 10.7826 12.2499C10.7367 12.2485 10.6815 12.2312 10.6286 12.1915C10.5252 12.114 10.4676 11.9852 10.5185 11.8233C10.7499 11.0877 10.5007 10.2727 9.87801 9.80537C9.76161 9.718 9.72208 9.58312 9.76798 9.43717C9.79072 9.3649 9.83046 9.3103 9.87229 9.27688C9.90898 9.24756 9.9582 9.22477 10.035 9.22477C10.8234 9.22477 11.5004 8.70167 11.733 7.96244Z" fill="#FAFAFA"/>
<path fill-rule="evenodd" clip-rule="evenodd" d="M8.22326 1.53146C9.09078 1.24958 10.132 1.24975 11.8383 1.25002H12.1619C13.8682 1.24975 14.9094 1.24958 15.777 1.53146C17.5275 2.10024 18.8999 3.47267 19.4687 5.22319L19.4773 5.25003H19.7695C23.475 5.25003 25.0668 9.95211 22.1233 12.203L22.1126 12.2112L19.6513 13.9576C19.5595 14.0227 19.4646 14.0832 19.3668 14.1388C19.3562 14.1667 19.3453 14.1945 19.3341 14.2224C19.0786 14.857 18.5799 15.6184 18.1003 16.1063C17.3187 16.9012 16.5098 17.2538 15.2181 17.8167L15.1323 17.8541C14.5759 18.0967 14.0134 18.3167 13.491 18.4772C13.2436 18.5532 12.9939 18.6196 12.7501 18.6678V21.25H16.0001C16.4143 21.25 16.7501 21.5858 16.7501 22C16.7501 22.4142 16.4143 22.75 16.0001 22.75H8.00011C7.58589 22.75 7.25011 22.4142 7.25011 22C7.25011 21.5858 7.58589 21.25 8.00011 21.25H11.2501V18.6678C11.0063 18.6196 10.7566 18.5532 10.5092 18.4772C9.98686 18.3167 9.42429 18.0967 8.86793 17.8541L8.78209 17.8167C7.49044 17.2538 6.68156 16.9012 5.89993 16.1063C5.42031 15.6184 4.92162 14.857 4.66613 14.2224C4.65462 14.1938 4.64341 14.1651 4.63249 14.1365C4.53679 14.0834 4.44402 14.025 4.35461 13.9615L1.8877 12.2112L1.87705 12.203C-1.06647 9.95211 0.525334 5.25003 4.23087 5.25003H4.52291L4.53153 5.22319C5.10031 3.47267 6.47274 2.10024 8.22326 1.53146ZM4.28317 6.75003H4.23087C1.96397 6.75003 0.987768 9.62126 2.77825 11.0038L4.27009 12.0623C4.24996 11.5801 4.25002 11.0411 4.2501 10.416L4.2501 8.91608C4.25007 8.03687 4.25004 7.33514 4.28317 6.75003ZM19.7301 12.0624L21.2221 11.0038C23.0126 9.62126 22.0364 6.75003 19.7695 6.75003H19.717C19.7502 7.33508 19.7501 8.03691 19.7501 8.91599L19.7501 10.4169C19.7502 11.0416 19.7503 11.5804 19.7301 12.0624ZM13.6979 7.51236C13.1685 5.82925 10.8315 5.82925 10.3021 7.51236C10.258 7.65248 10.1417 7.72477 10.035 7.72477C8.25955 7.72477 7.63517 9.99754 8.97762 11.0051C9.07911 11.0812 9.13287 11.2295 9.08765 11.3733C8.82931 12.1946 9.16176 12.9661 9.72817 13.3912C10.2981 13.819 11.141 13.9181 11.843 13.3912C11.9383 13.3197 12.0617 13.3197 12.157 13.3912C12.859 13.9181 13.7019 13.819 14.2718 13.3912C14.8382 12.9661 15.1707 12.1946 14.9123 11.3733C14.8671 11.2295 14.9209 11.0812 15.0224 11.0051C16.3648 9.99754 15.7405 7.72477 13.965 7.72477C13.8583 7.72477 13.742 7.65248 13.6979 7.51236Z" fill="#FAFAFA"/>
</svg>
