<svg width="18" height="21" viewBox="0 0 18 21" fill="none" xmlns="http://www.w3.org/2000/svg">
<path fill-rule="evenodd" clip-rule="evenodd" d="M4.5 2.88266C3.45858 3.00614 2.69469 3.24457 2.06107 3.70492C1.6366 4.01331 1.26331 4.3866 0.954915 4.81107C0 6.1254 0 8.00027 0 11.75C0 15.4997 0 17.3746 0.954915 18.6889C1.26331 19.1134 1.6366 19.4867 2.06107 19.7951C3.3754 20.75 5.25027 20.75 9 20.75C9.83894 20.75 10.584 20.75 11.25 20.7393L11.25 20.6692C11.2499 19.8172 11.2499 19.2982 11.3208 18.8505C11.7105 16.3901 13.6401 14.4605 16.1005 14.0708C16.5482 13.9999 17.0672 13.9999 17.9192 14L17.9893 14C18 13.3342 18 12.5892 18 11.7505C18 8.00073 18 6.1254 17.0451 4.81107C16.7367 4.3866 16.3634 4.01331 15.9389 3.70492C15.3053 3.24457 14.5414 3.00614 13.5 2.88266V3.75C13.5 4.57843 12.8284 5.25 12 5.25C11.1716 5.25 10.5 4.57843 10.5 3.75V2.75281C10.0359 2.75 9.53719 2.75 9 2.75C8.46281 2.75 7.9641 2.75 7.5 2.75281V3.75C7.5 4.57843 6.82843 5.25 6 5.25C5.17157 5.25 4.5 4.57843 4.5 3.75V2.88266ZM4 8.75C4.55228 8.75 5 8.30228 5 7.75C5 7.19772 4.55228 6.75 4 6.75C3.44772 6.75 3 7.19772 3 7.75C3 8.30228 3.44772 8.75 4 8.75ZM5 11.75C5 12.3023 4.55228 12.75 4 12.75C3.44772 12.75 3 12.3023 3 11.75C3 11.1977 3.44772 10.75 4 10.75C4.55228 10.75 5 11.1977 5 11.75ZM9 8.75C9.55229 8.75 10 8.30228 10 7.75C10 7.19772 9.55229 6.75 9 6.75C8.44771 6.75 8 7.19772 8 7.75C8 8.30228 8.44771 8.75 9 8.75ZM10 11.75C10 12.3023 9.55229 12.75 9 12.75C8.44771 12.75 8 12.3023 8 11.75C8 11.1977 8.44771 10.75 9 10.75C9.55229 10.75 10 11.1977 10 11.75ZM9 16.75C9.55229 16.75 10 16.3023 10 15.75C10 15.1977 9.55229 14.75 9 14.75C8.44771 14.75 8 15.1977 8 15.75C8 16.3023 8.44771 16.75 9 16.75ZM15 7.75C15 8.30228 14.5523 8.75 14 8.75C13.4477 8.75 13 8.30228 13 7.75C13 7.19772 13.4477 6.75 14 6.75C14.5523 6.75 15 7.19772 15 7.75ZM14 12.75C14.5523 12.75 15 12.3023 15 11.75C15 11.1977 14.5523 10.75 14 10.75C13.4477 10.75 13 11.1977 13 11.75C13 12.3023 13.4477 12.75 14 12.75ZM5 15.75C5 16.3023 4.55228 16.75 4 16.75C3.44772 16.75 3 16.3023 3 15.75C3 15.1977 3.44772 14.75 4 14.75C4.55228 14.75 5 15.1977 5 15.75Z" fill="white"/>
<path d="M17.9347 15.5C17.0243 15.5001 16.6435 15.5035 16.3352 15.5523C14.5166 15.8404 13.0904 17.2666 12.8023 19.0852C12.7535 19.3935 12.7501 19.7743 12.75 20.6847C14.1896 20.5903 15.1622 20.3594 15.9389 19.7951C16.3634 19.4867 16.7367 19.1134 17.0451 18.6889C17.6094 17.9122 17.8403 16.9396 17.9347 15.5Z" fill="white"/>
<path d="M6.75 0.75C6.75 0.335786 6.41421 0 6 0C5.58579 0 5.25 0.335786 5.25 0.75V3.75C5.25 4.16421 5.58579 4.5 6 4.5C6.41421 4.5 6.75 4.16421 6.75 3.75V0.75Z" fill="white"/>
<path d="M12.75 0.75C12.75 0.335786 12.4142 0 12 0C11.5858 0 11.25 0.335786 11.25 0.75V3.75C11.25 4.16421 11.5858 4.5 12 4.5C12.4142 4.5 12.75 4.16421 12.75 3.75V0.75Z" fill="white"/>
</svg>
