<svg width="18" height="17" viewBox="0 0 18 17" fill="none" xmlns="http://www.w3.org/2000/svg">
<path d="M5.59488 12.1854L7.82541 15.81C8.08927 16.2388 8.55668 16.5 9.06013 16.5C9.94867 16.5 10.6282 15.708 10.493 14.8298L10.25 13.25C9.9871 11.5411 11.3093 10 13.0382 10H13.728C16.265 10 17.9151 7.33013 16.7805 5.06096L15.632 2.76394C14.785 1.07001 13.0537 0 11.1598 0H8.25C6.90211 0 5.70994 0.666689 4.98525 1.6883C4.99501 1.79088 5 1.89486 5 2V10C5 10.331 4.95052 10.6504 4.85855 10.9513C5.03577 11.2769 5.27173 11.6603 5.59488 12.1854Z" fill="white"/>
<path d="M3.5 2C3.5 1.0335 2.7165 0.25 1.75 0.25C0.783502 0.25 0 1.0335 0 2V10C0 10.9665 0.783502 11.75 1.75 11.75C2.7165 11.75 3.5 10.9665 3.5 10V2Z" fill="white"/>
</svg>
