<svg width="18" height="17" viewBox="0 0 18 17" fill="none" xmlns="http://www.w3.org/2000/svg">
<path d="M5.59488 4.31457L7.82541 0.689951C8.08927 0.261184 8.55668 0 9.06013 0C9.94867 0 10.6282 0.79201 10.493 1.67022L10.25 3.25C9.9871 4.95887 11.3093 6.5 13.0382 6.5H13.728C16.265 6.5 17.9151 9.16987 16.7805 11.439L15.632 13.7361C14.785 15.43 13.0537 16.5 11.1598 16.5H8.25C6.90211 16.5 5.70994 15.8333 4.98525 14.8117C4.99501 14.7091 5 14.6051 5 14.5V6.5C5 6.169 4.95052 5.84955 4.85855 5.54866C5.03577 5.22312 5.27173 4.83968 5.59488 4.31457Z" fill="white"/>
<path d="M3.5 14.5C3.5 15.4665 2.7165 16.25 1.75 16.25C0.783502 16.25 0 15.4665 0 14.5V6.5C0 5.5335 0.783502 4.75 1.75 4.75C2.7165 4.75 3.5 5.5335 3.5 6.5V14.5Z" fill="white"/>
</svg>
